<svg enable-background="new 0 0 44 44" viewBox="0 0 44 44" xmlns="http://www.w3.org/2000/svg"><g fill="#383838"><path d="m18.5 5h4c.41 0 .75-.34.75-.75s-.34-.75-.75-.75h-4c-.41 0-.75.34-.75.75s.34.75.75.75z"/><path d="m27.5 19.84c-.52-.05-1.05.09-1.5.41v-10.5c0-.14-.11-.25-.25-.25h-2.09c-.34 1.43-1.63 2.5-3.16 2.5s-2.82-1.07-3.16-2.5h-2.09c-.14 0-.25.11-.25.25v19.5c0 .14.11.25.25.25h2.09c.34-1.43 1.63-2.5 3.16-2.5s2.82 1.07 3.16 2.5h2.09c.14 0 .25-.11.25-.25v-4.49l1.5 2.19v2.3c0 .97-.78 1.75-1.75 1.75h-2.75c-.41 0-.75-.34-.75-.75 0-.97-.78-1.75-1.75-1.75s-1.75.78-1.75 1.75c0 .41-.34.75-.75.75h-2.75c-.97 0-1.75-.78-1.75-1.75v-19.5c0-.97.78-1.75 1.75-1.75h2.75c.41 0 .75.34.75.75 0 .97.78 1.75 1.75 1.75s1.75-.78 1.75-1.75c0-.41.34-.75.75-.75h2.75c.97 0 1.75.78 1.75 1.75z"/><path d="m33 12.3v-9.55c0-1.52-1.23-2.75-2.75-2.75h-19.5c-1.52 0-2.75 1.23-2.75 2.75v36.5c0 1.52 1.23 2.75 2.75 2.75h19.5c.98 0 1.84-.51 2.33-1.29.11.19.21.37.33.56.35.55.71 1.08 1.08 1.57.22.3.4.52.5.64.26.32.74.36 1.06.1s.36-.74.1-1.06c-.09-.11-.25-.31-.45-.58-.35-.46-.69-.96-1.01-1.47-.38-.6-.7-1.17-.93-1.71-.31-.7-.48-1.3-.48-1.76v-3.45c0-.15-.05-.3-.13-.42l-6.39-9.34-.07-.08c-.66-.72-.66-1.9 0-2.62.62-.68 1.61-.68 2.23 0l.08.07 5.24 4.28c.32.26.79.21 1.06-.11s.21-.79-.11-1.06l-1.69-1.35v-8.72c4.99 3.94 8.56 7.78 8.56 10.35v8.31c0 .41.34.75.75.75s.75-.34.75-.75v-8.31c0-3.44-4.12-7.7-10.06-12.25zm-1.5 26.07v.88c0 .69-.56 1.25-1.25 1.25h-19.5c-.69 0-1.25-.56-1.25-1.25v-2.25h21.77c0 .42.08.88.23 1.37zm0-16.68-2.03-1.66c-1.22-1.28-3.2-1.27-4.4.04-1.17 1.28-1.18 3.31-.04 4.6l6.24 9.1v1.72h-21.77v-32.74c0-.69.56-1.25 1.25-1.25h19.5c.69 0 1.25.56 1.25 1.25z"/></g><circle cx="8" cy="14" fill="#0ab21b" r="7"/><path clip-rule="evenodd" d="m8 6c-4.42 0-8 3.58-8 8s3.58 8 8 8 8-3.58 8-8-3.58-8-8-8zm0 14.5c-3.59 0-6.5-2.91-6.5-6.5s2.91-6.5 6.5-6.5 6.5 2.91 6.5 6.5-2.91 6.5-6.5 6.5z" fill="#383838" fill-rule="evenodd"/><path d="m11.43 10.85-4.2 4.95c-.05.06-.15.11-.27.12s-.23-.03-.3-.09l-2.16-1.92c-.31-.27-.78-.25-1.06.07-.27.31-.25.78.07 1.06l2.17 1.92c.37.33.88.5 1.39.47s.99-.26 1.32-.64l4.2-4.95c.27-.32.23-.79-.09-1.06-.33-.29-.8-.25-1.07.07z" fill="#383838"/></svg>