<svg enable-background="new 0 0 44 44" viewBox="0 0 44 44" xmlns="http://www.w3.org/2000/svg"><g fill="#383838"><path d="m43.05 20.3c-.39-2.08-1.37-3.95-2.76-5.43-.22-.94-.51-1.88-.89-2.79-2.73-6.6-9.09-11-16.25-11.21h-.01c-7-.24-13.53 3.53-16.78 9.72-3.26 6.19-2.67 13.69 1.51 19.3 4.13 5.53 11.03 8.26 17.82 7.06l8.56 4.76c.48.27 1.08-.06 1.11-.61l.51-8.44c1.02-.35 2.01-.85 2.91-1.51 3.4-2.52 5.05-6.72 4.27-10.85zm-9.1 19.5-7.76-4.31c-.15-.09-.33-.11-.51-.08-6.32 1.22-12.77-1.29-16.61-6.43-3.84-5.15-4.38-12.03-1.39-17.7 2.99-5.68 8.98-9.14 15.4-8.92h.01c6.57.2 12.41 4.23 14.91 10.29.07.16.11.32.17.49-.93-.59-1.95-1.06-3.04-1.36-3.51-.96-7.22-.08-9.92 2.23h-12.46c-.41-.01-.75.33-.75.74s.34.75.75.75h11.02c-.73.92-1.28 1.93-1.67 3h-9.34c-.41 0-.75.34-.75.75s.34.75.75.75h8.91c-.21.99-.28 1.99-.22 3h-8.69c-.42 0-.76.34-.76.75s.34.75.75.75h8.9c.17.81.41 1.62.77 2.39l-1.32 5.48c-.13.54.35 1.02.89.91l5.47-1.17c2.18 1.08 4.6 1.37 6.91.93zm3.96-9.88c-2.92 2.15-6.8 2.44-10 .74-.16-.08-.34-.11-.51-.07l-4.56.98 1.1-4.58c.04-.17.02-.35-.06-.51-1.65-3.31-1.2-7.28 1.14-10.14 2.35-2.86 6.16-4.08 9.73-3.1h.01c3.5.94 6.15 3.8 6.82 7.35s-.75 7.18-3.67 9.33z"/><path d="m30.62 20.62c-.04.04-.05.05-.05.07v4.35c0 .02 0 .03.05.07.05.05.07.06.12.06h4.08c.12 0 .11 0 .15-.09l1.37-3.04c.01-.02.01-.03.01-.05v-.88c0-.02 0-.02-.04-.05-.05-.04-.07-.05-.13-.05h-2.88c-.48 0-.84-.45-.73-.91l.39-1.76zm2.38-2.35v-.08l.02-.08.16.04-.13.13h-.05zm3.17 1.25c.44 0 .83.16 1.15.45.33.31.52.71.52 1.15v.88c0 .21-.04.41-.13.64l-1.36 3.03c-.25.65-.81 1.01-1.53 1.01h-4.08c-.44 0-.84-.17-1.16-.48-.33-.32-.51-.71-.51-1.16v-4.34c0-.44.18-.84.51-1.15l2.98-2.88c.29-.28.75-.28 1.04 0l.49.47c.27.26.42.61.42.99v.15l-.02.16-.24 1.09h1.92z"/><path d="m26.5 20.74v5.09c0 .41.34.75.75.75s.75-.33.75-.75v-5.09c0-.41-.34-.75-.75-.75s-.75.34-.75.75z"/></g><circle clip-rule="evenodd" cx="8" cy="14" fill="#0ab21b" fill-rule="evenodd" r="7"/><path d="m8 20.5c-3.59 0-6.5-2.91-6.5-6.5s2.91-6.5 6.5-6.5 6.5 2.91 6.5 6.5-2.91 6.5-6.5 6.5zm0 1.5c4.42 0 8-3.58 8-8s-3.58-8-8-8-8 3.58-8 8 3.58 8 8 8z" fill="#383838"/><path d="m11.43 10.85-4.2 4.95c-.05.06-.15.11-.27.12s-.23-.03-.3-.09l-2.16-1.92c-.31-.27-.78-.25-1.06.07-.27.31-.25.78.07 1.06l2.17 1.92c.37.33.88.5 1.39.47s.99-.26 1.32-.64l4.2-4.95c.27-.32.23-.79-.09-1.06-.33-.29-.8-.25-1.07.07z" fill="#383838"/></svg>