<svg enable-background="new 0 0 44 44" viewBox="0 0 44 44" xmlns="http://www.w3.org/2000/svg"><g fill="#383838"><path d="m43.03 10.72c-1.07-4.78-4.79-8.53-9.56-9.63h-.01c-4.87-1.15-9.96.68-13 4.67-.18.24-.36.48-.52.74-4.33.48-8.55 2.46-11.79 5.94-7.06 7.56-6.82 19.28.56 26.15 7.37 6.88 19.08 6.3 26.13-1.27 3.95-4.24 5.61-9.78 5.02-15.04 2.89-3.05 4.11-7.38 3.17-11.56zm-37.58 20.17.63-.68c.6-.64 1.52-.78 2.19-.35l6.4 4.16c.31.2.71.15.96-.12l1.81-1.94c.38-.41.91-.62 1.43-.59.51.03.95.29 1.21.7l2.61 4.16c.4.63.3 1.5-.26 2.1l-3.21 3.44c-3.45-.36-6.79-1.77-9.49-4.29-2.01-1.86-3.43-4.14-4.28-6.59zm15.73 10.99 2.35-2.52c1.02-1.09 1.2-2.7.44-3.92l-2.61-4.16c-.52-.83-1.41-1.35-2.39-1.4-.97-.06-1.93.34-2.61 1.07l-1.38 1.48-5.88-3.81c-1.29-.83-3.02-.58-4.1.58l-.02.03c-1.25-5.37.15-11.33 4.28-15.76 2.72-2.92 6.18-4.69 9.79-5.32-1.63 3.52-1.58 7.64.23 11.17l-1.34 6.57c-.11.54.38 1.01.92.88l6.44-1.62c.08.04.16.06.24.1l-.79 2.48c-.3.95-.13 1.98.47 2.79.59.8 1.52 1.3 2.53 1.35.14.01.29 0 .44-.02.19-.03.35-.07.6-.13.06-.02.11-.03.15-.04l1.18 7.63c-2.77 1.67-5.86 2.53-8.94 2.57zm12.56-5.58c-.71.76-1.48 1.43-2.28 2.04l-1.12-7.26c-.09-.59-.5-.97-1.06-1-.27-.01-.37.01-.92.16-.19.05-.3.08-.41.09-.06.01-.11.01-.15.01-.56-.03-1.08-.3-1.4-.74-.31-.43-.4-.96-.25-1.45l.77-2.41c3.92 1.18 8.22.41 11.52-2.17.21 4.51-1.33 9.13-4.7 12.73zm3.84-13.95c-3.39 2.69-8.01 3.2-11.9 1.31-.16-.08-.34-.1-.51-.05l-5.54 1.4 1.16-5.67c.04-.17.01-.35-.08-.51-2.11-3.89-1.74-8.65.95-12.17 2.68-3.52 7.17-5.13 11.47-4.11h.01c4.21.97 7.49 4.27 8.44 8.5.94 4.22-.62 8.62-4 11.3z"/><path d="m28.77 11c0-1.24 1.01-2.25 2.25-2.25s2.25 1.01 2.25 2.25-1.01 2.25-2.25 2.25c-.41 0-.75.34-.75.75s.34.75.75.75c2.07 0 3.75-1.68 3.75-3.75s-1.68-3.75-3.75-3.75-3.75 1.68-3.75 3.75c0 .41.34.75.75.75s.75-.34.75-.75z"/><circle clip-rule="evenodd" cx="30.81" cy="17.72" fill-rule="evenodd" r="1.25"/></g><path clip-rule="evenodd" d="m8 6.77c2.85-.01 5.43 1.65 6.61 4.24 1.17 2.59.72 5.63-1.17 7.76l-.11 4.21-3.71-1.9c-2.71.62-5.54-.36-7.28-2.54s-2.08-5.15-.87-7.66c1.2-2.52 3.74-4.11 6.53-4.11z" fill="#0ab21b" fill-rule="evenodd"/><path d="m12.69 18.75c0-.18.07-.35.19-.48 1.69-1.91 2.1-4.63 1.05-6.96-1.06-2.32-3.38-3.8-5.93-3.79-2.5 0-4.77 1.43-5.85 3.68s-.78 4.92.78 6.87 4.1 2.83 6.53 2.28c.17-.04.35-.02.51.06l2.65 1.36zm2.6-8.05c1.26 2.78.82 6.02-1.11 8.36l-.1 3.94c-.01.55-.6.9-1.09.65l-3.48-1.78c-2.91.56-5.9-.54-7.76-2.87-1.92-2.4-2.29-5.69-.96-8.46 1.33-2.76 4.13-4.52 7.21-4.52 3.14-.02 5.99 1.82 7.29 4.68z" fill="#383838"/><path d="m11.43 10.85-4.2 4.95c-.05.06-.15.11-.27.12s-.23-.03-.3-.09l-2.16-1.92c-.31-.27-.78-.25-1.06.07-.27.31-.25.78.07 1.06l2.17 1.92c.37.33.88.5 1.39.47s.99-.26 1.32-.64l4.2-4.95c.27-.32.23-.79-.09-1.06-.33-.29-.8-.25-1.07.07z" fill="#383838"/></svg>