<?xml version="1.0" standalone="no"?><!DOCTYPE svg PUBLIC "-//W3C//DTD SVG 1.1//EN" "http://www.w3.org/Graphics/SVG/1.1/DTD/svg11.dtd"><svg t="1581576087561" class="icon" viewBox="0 0 1024 1024" version="1.1" xmlns="http://www.w3.org/2000/svg" p-id="2506" xmlns:xlink="http://www.w3.org/1999/xlink" width="200" height="200"><defs><style type="text/css"></style></defs><path d="M514 114.3c-220 0-398.8 178.9-398.8 398.8S294 912 514 912s398.8-178.9 398.8-398.8S734 114.3 514 114.3z m0 755c-196.5 0-356.1-159.6-356.1-356.1 0-196.5 160.2-356.1 356.1-356.1 196.5 0 356.1 159.6 356.1 356.1S710.5 869.3 514 869.3z" p-id="2507" fill="#0077CC"></path><path d="M739.7 377.4L525 592.2c-24.3 24.3-63.9 24.3-88.2 0.1l-95.5-95.1-30.1 30.3 95.5 95.1c20.5 20.4 47.4 30.6 74.2 30.6 26.9 0 53.9-10.2 74.3-30.7l214.7-214.7-30.2-30.4z" p-id="2508" fill="#0077CC"></path></svg>